<svg width="18" height="15" viewBox="0 0 18 15" fill="none" xmlns="http://www.w3.org/2000/svg">
<path d="M7.37501 1.7075V1H16.875V11.875C16.875 13.0514 15.9264 14 14.75 14H6.00001C5.31365 14 4.75001 13.4364 4.75001 12.75V10.625H6.86626H7.36626V10.125V8.13875V7.66038L6.88836 7.63924C6.08006 7.60347 5.28218 7.30275 4.64501 6.73363V5.9775V5.4775H4.14501H3.38087L0.982565 3.0792C2.02582 2.20441 3.30773 1.77 4.59126 1.77C5.3068 1.77 6.02286 1.90676 6.69028 2.17212L7.37501 2.44437V1.7075ZM5.40376 6.10875V6.40439L5.6628 6.54686C6.08655 6.77992 6.57193 6.90625 7.06751 6.90625C7.84194 6.90625 8.56324 6.59763 9.10106 6.0598L8.74751 5.70625L9.10107 6.0598L9.27606 5.8848L9.62961 5.53125L9.27606 5.1777L8.04231 3.94395L8.04232 3.94394L8.04044 3.94208C7.11656 3.02793 5.89683 2.52 4.59126 2.52C3.97699 2.52 3.37353 2.6369 2.81872 2.85104L2.10187 3.12772L2.64521 3.67105L3.55521 4.58105L3.70165 4.7275H3.90876H5.40376V6.10875ZM8.12501 10.125V10.625H8.62501H13.375V11.875C13.375 12.6324 13.9926 13.25 14.75 13.25C15.5074 13.25 16.125 12.6324 16.125 11.875V2.25V1.75H15.625H8.62501H8.12501V2.25V2.7925V3.00034L8.27234 3.14694L13.375 8.22409V8.75H12.8478L10.5179 6.42832L10.1644 6.07602L9.81146 6.42895L9.63646 6.60395C9.28349 6.95691 8.87704 7.21788 8.43791 7.39507L8.12501 7.52133V7.85875V10.125Z" fill="#682FC6" fill-opacity="0.86" stroke="black"/>
</svg>
